<?xml version="1.0" encoding="UTF-8" standalone="no"?>
<!DOCTYPE svg PUBLIC "-//W3C//DTD SVG 1.1//EN" "http://www.w3.org/Graphics/SVG/1.1/DTD/svg11.dtd">
<svg width="100%" height="100%" viewBox="0 0 354 354" version="1.1" xmlns="http://www.w3.org/2000/svg" xmlns:xlink="http://www.w3.org/1999/xlink" xml:space="preserve" xmlns:serif="http://www.serif.com/" style="fill-rule:evenodd;clip-rule:evenodd;stroke-linejoin:round;stroke-miterlimit:2;">
    <g transform="matrix(1,0,0,1,-76,-73)">
        <path d="M234.06,74.818C215.467,69.87 195.648,75.185 182.017,88.775L178.5,92.283C178.45,92.331 178.401,92.38 178.352,92.429L91.91,178.616C88.054,182.46 84.858,186.803 82.367,191.475C82.09,191.994 81.822,192.518 81.563,193.045C75.86,204.64 74.4,218.094 77.843,230.957L110.564,353.185C115.573,371.894 130.19,386.496 148.892,391.473L265.839,422.594C265.873,422.603 265.906,422.612 265.94,422.621L266.025,422.644L271.807,424.182C290.4,429.13 310.219,423.815 323.849,410.225L413.957,320.384C427.667,306.714 433.031,286.753 428.023,268.044L395.302,145.816C390.294,127.107 375.676,112.504 356.974,107.527L234.06,74.818ZM107.575,194.357C101.009,200.903 97.691,209.897 98.261,218.955C98.392,221.045 98.731,223.138 99.284,225.206L132.005,347.434C132.53,349.393 133.233,351.276 134.097,353.064C138.095,361.34 145.531,367.589 154.596,370.001L271.827,401.198C272.531,401.381 273.238,401.548 273.95,401.7C283.112,403.34 292.095,397.472 294.145,388.208L306.884,330.643C307.991,325.64 307.877,320.442 306.552,315.492L266.403,165.514C265.077,160.564 262.58,156.006 259.121,152.227L219.333,108.75C212.938,101.761 202.245,101.168 195.13,107.15C194.543,107.678 193.969,108.221 193.408,108.777L107.575,194.357ZM328.556,335.448L317.834,374.167L351.93,318.887C356.966,311.269 358.498,301.856 356.136,293.032L320.563,160.152C318.201,151.328 312.172,143.942 304.005,139.866L246.865,109.056L275.489,137.22C281.357,143.632 285.595,151.365 287.843,159.764L327.993,309.742C330.241,318.141 330.434,326.958 328.556,335.448ZM367.988,334.858L398.292,304.643C406.373,296.587 409.534,284.821 406.582,273.794L373.862,151.566C370.91,140.539 362.294,131.932 351.271,128.999L309.933,117.998L313.911,119.984C327.768,126.9 337.996,139.432 342.003,154.401L377.576,287.282C381.584,302.252 378.986,318.223 370.441,331.148L367.988,334.858Z" style="fill:rgb(41,41,41);"/>
    </g>
</svg>
